<svg xmlns="http://www.w3.org/2000/svg" viewBox="0 0 64 64" role="img" aria-label="Learn to Learn">
  <circle cx="32" cy="32" r="32" fill="#0d1b2a"/>
  <g stroke="#eaf6f2" stroke-width="2.2" stroke-linecap="round" fill="none">
    <path d="M32 47 C31.5 40 31.5 33 32 26"/>
    <path d="M32 35 C28 32 26 29 24.5 26.5"/>
    <path d="M32 32 C36 29 38 26.5 39.5 24"/>
  </g>
  <g transform="translate(32 16)"><path d="M0 0 C2.4 -2.6 2.4 -7 0 -9.4 C-2.4 -7 -2.4 -2.6 0 0 Z" fill="#6bae7f"/></g>
  <g transform="translate(27 19) rotate(-28)"><path d="M0 0 C2.4 -2.6 2.4 -7 0 -9.4 C-2.4 -7 -2.4 -2.6 0 0 Z" fill="#a8d5c2"/></g>
  <g transform="translate(37 19) rotate(28)"><path d="M0 0 C2.4 -2.6 2.4 -7 0 -9.4 C-2.4 -7 -2.4 -2.6 0 0 Z" fill="#a8d5c2"/></g>
  <g transform="translate(23 24) rotate(-52)"><path d="M0 0 C2.4 -2.6 2.4 -7 0 -9.4 C-2.4 -7 -2.4 -2.6 0 0 Z" fill="#4e9568"/></g>
  <g transform="translate(41 24) rotate(52)"><path d="M0 0 C2.4 -2.6 2.4 -7 0 -9.4 C-2.4 -7 -2.4 -2.6 0 0 Z" fill="#4e9568"/></g>
  <g transform="translate(30 22) rotate(-14)"><path d="M0 0 C2.4 -2.6 2.4 -7 0 -9.4 C-2.4 -7 -2.4 -2.6 0 0 Z" fill="#6bae7f"/></g>
  <g transform="translate(34 22) rotate(14)"><path d="M0 0 C2.4 -2.6 2.4 -7 0 -9.4 C-2.4 -7 -2.4 -2.6 0 0 Z" fill="#6bae7f"/></g>
  <path d="M32 47 C26 43 19 44 15 47 L15 53 C20 50 27 49.5 32 52 Z" fill="#ffffff"/>
  <path d="M32 47 C38 43 45 44 49 47 L49 53 C44 50 37 49.5 32 52 Z" fill="#ffffff"/>
  <path d="M14 53 C22 58 42 58 50 53" stroke="#1b9aaa" stroke-width="3" stroke-linecap="round" fill="none"/>
</svg>
